#!OML:ASF C:\Vicon Data\Big\jianyuan-13\jianyuan\Session 1\Capture.male.ASF
:FULLY-SPECIFIED
:DEGREES
98
root -8.821667 17.714961 -13.910785 5.079149 -1.418603 -0.852782
lowerback -10.328798 4.088215 1.054360 
upperback 2.392826 5.348435 -0.296081 
thorax 8.461513 2.658135 0.033892 
lowerneck -0.061194 -3.498263 3.289968 
upperneck 1.355252 -4.640754 -3.701435 
head 0.258377 -2.321342 -1.705356 
rclavicle 0.000000 0.000000 
rhumerus -12.258749 0.183977 -89.743860 
rradius 48.519980 
rwrist 13.646884 
rhand -16.720965 -18.288200 
rfingers 0.000000 
rthumb 9.504605 -48.053846 
lclavicle 0.000000 0.000000 
lhumerus -64.936783 37.755530 38.600868 
lradius 24.311450 
lwrist -58.236699 
lhand -18.389568 0.470913 
lfingers 0.000000 
lthumb 7.894351 30.303526 
rfemur -0.093104 5.997953 27.157118 
rtibia 25.369213 
rfoot -23.855326 -1.693903 
rtoes -25.213200 
lfemur -50.011751 1.283393 -15.653343 
ltibia 35.225191 
lfoot -9.753081 5.025712 
ltoes -40.592825 
99
root -8.811555 17.687845 -13.771210 5.257853 -1.634901 -0.920296
lowerback -10.695426 4.146358 1.063730 
upperback 2.262447 5.414647 -0.234386 
thorax 8.527867 2.686452 0.127607 
lowerneck 0.001916 -3.465092 3.121812 
upperneck 1.566888 -4.589778 -3.650566 
head 0.320152 -2.296034 -1.661566 
rclavicle 0.000000 0.000000 
rhumerus -12.186282 0.045939 -89.753085 
rradius 48.090904 
rwrist 13.923020 
rhand -16.901193 -18.531402 
rfingers 0.000000 
rthumb 9.330678 -48.304877 
lclavicle 0.000000 0.000000 
lhumerus -65.925266 38.044473 37.309503 
lradius 24.147755 
lwrist -59.070622 
lhand -18.333831 0.354386 
lfingers 0.000000 
lthumb 7.948166 30.184974 
rfemur 0.450988 6.155292 27.210879 
rtibia 25.000892 
rfoot -23.965251 -1.684859 
rtoes -25.349943 
lfemur -49.192911 1.100099 -15.384878 
ltibia 32.961220 
lfoot -9.606861 5.642317 
ltoes -40.350868 
100
root -8.804620 17.663654 -13.630029 5.381361 -1.962945 -0.993471
lowerback -10.995083 4.252870 1.092660 
upperback 2.154744 5.546437 -0.208672 
thorax 8.586328 2.748927 0.181272 
lowerneck 0.192673 -3.433725 3.032302 
upperneck 1.612131 -4.539055 -3.892481 
head 0.300182 -2.270613 -1.719942 
rclavicle 0.000000 0.000000 
rhumerus -12.132027 -0.012404 -89.829992 
rradius 47.693667 
rwrist 14.008963 
rhand -16.603423 -18.470649 
rfingers 0.000000 
rthumb 9.618032 -48.231052 
lclavicle 0.000000 0.000000 
lhumerus -66.647603 38.028882 36.471029 
lradius 24.060795 
lwrist -60.103419 
lhand -19.151529 1.280420 
lfingers 0.000000 
lthumb 7.158893 31.139297 
rfemur 1.034038 6.382899 27.288392 
rtibia 24.694449 
rfoot -24.034110 -1.756621 
rtoes -25.621914 
lfemur -48.288740 1.013243 -15.087179 
ltibia 30.746378 
lfoot -9.384399 6.220316 
ltoes -40.270696 
101
root -8.790337 17.632589 -13.485617 5.414274 -2.166864 -1.068616
lowerback -11.191718 4.302086 1.146950 
upperback 2.064527 5.598891 -0.180029 
thorax 8.605083 2.774877 0.202516 
lowerneck 0.401186 -3.296282 2.752598 
upperneck 1.563820 -4.356425 -3.406327 
head 0.273704 -2.176816 -1.511920 
rclavicle 0.000000 0.000000 
rhumerus -12.138923 -0.012051 -89.886304 
rradius 47.353290 
rwrist 14.025476 
rhand -16.485989 -18.505754 
rfingers 0.000000 
rthumb 9.731329 -48.260935 
lclavicle 0.000000 0.000000 
lhumerus -67.328657 38.029327 35.684141 
lradius 24.014265 
lwrist -60.471257 
lhand -19.050020 1.303018 
lfingers 0.000000 
lthumb 7.256837 31.158525 
rfemur 1.614685 6.447636 27.340156 
rtibia 24.537249 
rfoot -24.201171 -1.787761 
rtoes -25.865696 
lfemur -47.295439 0.715874 -14.777456 
ltibia 28.588212 
lfoot -9.279477 6.891240 
ltoes -41.047959 
102
root -8.782419 17.610583 -13.345708 5.561820 -2.448382 -1.150558
lowerback -11.448186 4.390245 1.156663 
upperback 1.971666 5.707720 -0.139462 
thorax 8.650445 2.825032 0.276672 
lowerneck 0.267573 -3.248377 2.713119 
upperneck 1.776765 -4.290240 -3.462181 
head 0.363619 -2.145683 -1.528670 
rclavicle 0.000000 0.000000 
rhumerus -12.082206 -0.168610 -89.963388 
rradius 46.998729 
rwrist 14.135755 
rhand -16.836955 -18.841255 
rfingers 0.000000 
rthumb 9.392687 -48.611975 
lclavicle 0.000000 0.000000 
lhumerus -67.708375 37.960770 35.271391 
lradius 23.937435 
lwrist -60.206179 
lhand -18.866822 1.313666 
lfingers 0.000000 
lthumb 7.433678 31.163043 
rfemur 1.998147 6.505516 27.383265 
rtibia 24.477397 
rfoot -24.307451 -1.748348 
rtoes -26.108496 
lfemur -46.429695 0.377111 -14.272741 
ltibia 26.569129 
lfoot -9.405461 7.554268 
ltoes -40.180150 
103
root -8.770673 17.575903 -13.199506 5.648174 -2.778871 -1.186616
lowerback -11.712465 4.469378 1.170457 
upperback 1.926319 5.807152 -0.135905 
thorax 8.755927 2.871437 0.311576 
lowerneck 0.370055 -3.164634 2.640233 
upperneck 1.778759 -4.176459 -3.432978 
head 0.352787 -2.088241 -1.504996 
rclavicle 0.000000 0.000000 
rhumerus -12.064607 -0.077000 -90.067716 
rradius 46.754991 
rwrist 14.206128 
rhand -16.830115 -19.006411 
rfingers 0.000000 
rthumb 9.399242 -48.776796 
lclavicle 0.000000 0.000000 
lhumerus -68.179842 37.923194 34.774673 
lradius 23.944603 
lwrist -60.354882 
lhand -18.985729 1.545730 
lfingers 0.000000 
lthumb 7.318897 31.399159 
rfemur 2.552498 6.605080 27.369831 
rtibia 24.354024 
rfoot -24.399440 -1.730385 
rtoes -26.370153 
lfemur -45.571305 0.235922 -14.026131 
ltibia 24.794686 
lfoot -9.409520 8.038596 
ltoes -40.639646 
104
root -8.756728 17.546028 -13.056844 5.723792 -3.087770 -1.243672
lowerback -11.868888 4.549139 1.188270 
upperback 1.862630 5.905058 -0.098390 
thorax 8.775859 2.917435 0.370277 
lowerneck 0.468274 -3.121083 2.532851 
upperneck 1.732317 -4.117236 -3.436453 
head 0.325947 -2.058373 -1.485118 
rclavicle 0.000000 0.000000 
rhumerus -12.059781 -0.162897 -90.102875 
rradius 46.422763 
rwrist 14.452738 
rhand -17.018517 -19.114808 
rfingers 0.000000 
rthumb 9.217435 -48.893345 
lclavicle 0.000000 0.000000 
lhumerus -68.649764 37.865228 34.402327 
lradius 23.953915 
lwrist -60.378827 
lhand -18.951731 1.560896 
lfingers 0.000000 
lthumb 7.351762 31.413177 
rfemur 3.081036 6.795952 27.393170 
rtibia 24.267287 
rfoot -24.435344 -1.723077 
rtoes -26.288490 
lfemur -44.744492 -0.096880 -13.604082 
ltibia 23.195787 
lfoot -9.704833 8.581786 
ltoes -40.582604 
105
root -8.740797 17.523773 -12.913421 5.759434 -3.419616 -1.241664
lowerback -12.019968 4.622165 1.224212 
upperback 1.848950 5.997570 -0.129398 
thorax 8.856595 2.963294 0.348303 
lowerneck 0.438249 -3.041778 2.501258 
upperneck 1.747312 -4.012094 -3.400093 
head 0.340227 -2.006164 -1.469225 
rclavicle 0.000000 0.000000 
rhumerus -12.049575 -0.122302 -90.256670 
rradius 46.149035 
rwrist 14.519081 
rhand -16.942455 -18.997966 
rfingers 0.000000 
rthumb 9.290888 -48.773121 
lclavicle 0.000000 0.000000 
lhumerus -69.015254 37.808250 34.061997 
lradius 23.957081 
lwrist -60.536722 
lhand -18.923173 1.528018 
lfingers 0.000000 
lthumb 7.379351 31.379321 
rfemur 3.533376 6.752331 27.279283 
rtibia 24.300034 
rfoot -24.446420 -1.632845 
rtoes -26.748647 
lfemur -43.916298 -0.344768 -13.322331 
ltibia 21.783065 
lfoot -9.965087 8.983447 
ltoes -40.281112 
106
root -8.727984 17.494500 -12.770633 5.882386 -3.800736 -1.298869
lowerback -12.275736 4.741779 1.245762 
upperback 1.861995 6.150452 -0.130499 
thorax 9.022821 3.035396 0.389199 
lowerneck 0.440066 -3.005686 2.417725 
upperneck 1.617515 -3.967909 -3.291900 
head 0.305065 -1.983791 -1.418969 
rclavicle 0.000000 0.000000 
rhumerus -11.991328 -0.354861 -90.333008 
rradius 45.889993 
rwrist 14.983941 
rhand -17.047331 -19.000140 
rfingers 0.000000 
rthumb 9.189651 -48.779610 
lclavicle 0.000000 0.000000 
lhumerus -69.266268 37.848819 33.772260 
lradius 23.955651 
lwrist -60.885451 
lhand -19.010272 1.579117 
lfingers 0.000000 
lthumb 7.295263 31.433330 
rfemur 3.851751 6.735137 27.213564 
rtibia 24.432550 
rfoot -24.367547 -1.396388 
rtoes -26.318186 
lfemur -43.236248 -0.312971 -13.134157 
ltibia 20.558203 
lfoot -10.029047 9.296565 
ltoes -40.909638 
107
root -8.707849 17.464975 -12.625970 5.916804 -4.136996 -1.319778
lowerback -12.405905 4.838110 1.349439 
upperback 1.878215 6.266265 -0.186937 
thorax 9.135568 3.096523 0.308800 
lowerneck 0.469297 -2.967490 2.477269 
upperneck 1.467817 -3.919250 -3.321954 
head 0.253785 -1.958702 -1.436484 
rclavicle 0.000000 0.000000 
rhumerus -11.917154 -0.357116 -90.538183 
rradius 45.597075 
rwrist 14.644407 
rhand -17.493450 -19.132397 
rfingers 0.000000 
rthumb 8.759197 -48.930635 
lclavicle 0.000000 0.000000 
lhumerus -69.494239 37.820278 33.515188 
lradius 23.889470 
lwrist -61.153945 
lhand -19.080382 1.437223 
lfingers 0.000000 
lthumb 7.227576 31.293797 
rfemur 4.265130 6.662555 27.117092 
rtibia 24.608102 
rfoot -24.351048 -1.379807 
rtoes -26.594769 
lfemur -42.531355 -0.361639 -13.026794 
ltibia 19.551861 
lfoot -10.092209 9.493413 
ltoes -41.390843 
